<svg width="247" height="53" viewBox="0 0 247 53" fill="currentColor" xmlns="http://www.w3.org/2000/svg">
<g id="logo" clip-path="url(#clip0_827_2321)">
<g id="Group">
<path id="Vector" d="M71.6994 7.66308H79.6749V24.0726H84.3006V7.66308H92.2761V3.00903H71.6994V7.66308Z" fill="#231815"/>
<path id="Vector_2" d="M97.4602 19.1376H109.144V24.0725H113.77V5.3761C113.77 5.05513 113.73 4.77428 113.61 4.45331C113.491 4.17246 113.331 3.93174 113.132 3.69101C112.933 3.4904 112.653 3.2898 112.374 3.20956C112.095 3.08919 111.776 3.04907 111.457 3.04907H103.322C101.847 3.04907 100.451 3.32992 99.1749 3.81137C97.8988 4.33295 96.7822 5.05513 95.8651 5.97791C94.9479 6.9007 94.1902 8.02409 93.6718 9.30797C93.1534 10.5918 92.8743 11.9961 92.8743 13.5207V24.0324H97.5V19.0975L97.4602 19.1376ZM101.488 7.94385C101.926 7.82349 102.325 7.74324 102.644 7.70312C102.963 7.70312 103.202 7.663 103.282 7.663H109.144V14.5237H97.4602V13.5608C97.4602 12.5979 97.5798 11.7955 97.8589 11.1535C98.0982 10.5116 98.4571 9.9499 98.8559 9.50857C99.2546 9.06724 99.6933 8.74627 100.132 8.50554C100.61 8.26482 101.089 8.06421 101.528 7.94385H101.488Z" fill="#231815"/>
<path id="Vector_3" d="M121.626 3.00903H117V24.0726H121.626V3.00903Z" fill="#231815"/>
<path id="Vector_4" d="M144.436 16.1688C144.795 15.6473 145.114 15.0053 145.313 14.3233C145.512 13.6412 145.632 12.8388 145.632 11.9561V10.3112C145.632 9.8297 145.592 9.30813 145.472 8.78655C145.353 8.22486 145.193 7.70328 144.954 7.18171C144.715 6.66014 144.396 6.13856 144.037 5.65711C143.678 5.17565 143.199 4.73432 142.681 4.33311C142.123 3.97202 141.525 3.65105 140.847 3.41032C140.169 3.1696 139.371 3.08936 138.494 3.08936H130.319C129.761 3.08936 129.163 3.1696 128.525 3.3702C127.887 3.57081 127.249 3.89178 126.73 4.33311C126.172 4.77444 125.693 5.37626 125.334 6.05832C124.976 6.7805 124.776 7.66316 124.776 8.66619V24.1128H129.402V8.66619C129.402 8.34522 129.482 8.06437 129.641 7.94401C129.801 7.82365 130.04 7.70328 130.399 7.70328H138.534C138.933 7.70328 139.291 7.78353 139.571 7.90389C139.89 8.02425 140.129 8.18474 140.328 8.42546C140.528 8.66619 140.687 8.90692 140.847 9.22789C140.966 9.54886 141.086 9.95007 141.086 10.3112V11.9561C141.086 12.3573 141.006 12.7184 140.887 13.0394C140.767 13.3604 140.607 13.6011 140.368 13.8017C140.129 14.0023 139.89 14.2029 139.571 14.3233C139.252 14.4436 138.893 14.5239 138.494 14.564H133.828V19.218H138.494C138.972 19.218 139.491 19.1779 140.009 19.0576C140.528 18.9372 141.086 18.7767 141.604 18.536C142.123 18.2953 142.641 17.9743 143.12 17.6132C143.598 17.212 144.037 16.7707 144.436 16.209V16.1688Z" fill="#231815"/>
<path id="Vector_5" d="M149.66 22.8289C150.218 23.2702 150.816 23.5912 151.494 23.7918C152.132 23.9924 152.73 24.0726 153.288 24.0726H166.807V19.4186H153.288C152.929 19.4186 152.69 19.3383 152.531 19.1778C152.371 19.0174 152.291 18.7766 152.291 18.4557V7.66308H166.767V3.00903H150.018C149.699 3.00903 149.38 3.08928 149.101 3.16952C148.822 3.28988 148.583 3.45037 148.344 3.69109C148.144 3.8917 147.985 4.17255 147.865 4.45339C147.745 4.73424 147.706 5.05521 147.706 5.37618V18.4958C147.706 19.4988 147.905 20.3815 148.264 21.1037C148.623 21.8258 149.101 22.3875 149.66 22.8289Z" fill="#231815"/>
<path id="Vector_6" d="M165.132 11.2339H156.718V15.8879H165.132V11.2339Z" fill="#231815"/>
<path id="Vector_7" d="M173.905 3.00903H169.279V24.0726H173.905V3.00903Z" fill="#231815"/>
<path id="Vector_8" d="M76.7239 31.9364C76.1657 32.0969 75.6871 32.3377 75.2883 32.6586C74.8896 32.9395 74.5307 33.3006 74.2117 33.6617C73.9325 34.0227 73.6933 34.424 73.4939 34.8653C73.3344 35.2665 73.1749 35.7078 73.0951 36.109C73.0153 36.5103 72.9755 36.9115 72.9755 37.2726V47.1022C72.9755 47.7843 73.0552 48.3861 73.2147 48.9478C73.3742 49.5095 73.6135 49.991 73.9325 50.3922C74.2117 50.7934 74.5706 51.1545 74.9295 51.4754C75.2884 51.7563 75.6871 51.997 76.1258 52.1976C76.5245 52.3982 76.9632 52.5186 77.362 52.5988C77.7607 52.6791 78.1595 52.7192 78.5583 52.7192H92.0767V48.0651H78.5583C78.2393 48.0651 78 47.9849 77.8405 47.8244C77.681 47.6639 77.6012 47.4232 77.6012 47.1022V37.2726C77.6012 36.9115 77.681 36.6707 77.8405 36.5103C78 36.3498 78.2393 36.2695 78.5583 36.2695H92.0767V31.6155H78.5583C77.8804 31.6155 77.2822 31.6957 76.7239 31.8963V31.9364Z" fill="#231815"/>
<path id="Vector_9" d="M113.61 33.9024C112.813 33.1 111.896 32.4981 110.819 32.0568C109.742 31.6155 108.586 31.3748 107.31 31.3748H102.405C101.169 31.3748 99.9724 31.6155 98.8957 32.0568C97.819 32.4981 96.862 33.1401 96.1043 33.9024C95.3068 34.7048 94.7086 35.6276 94.27 36.7109C93.8313 37.7941 93.592 38.9978 93.592 40.2816V44.0931C93.592 45.377 93.8313 46.5807 94.27 47.6639C94.7086 48.7472 95.3466 49.67 96.1043 50.4724C96.9019 51.2748 97.819 51.8766 98.8957 52.318C99.9724 52.7593 101.129 52.9599 102.405 52.9599H107.31C108.546 52.9599 109.742 52.7192 110.819 52.318C111.896 51.8766 112.813 51.2748 113.61 50.4724C114.408 49.67 115.006 48.7472 115.445 47.6639C115.883 46.5807 116.123 45.377 116.123 44.0931V40.2816C116.123 38.9978 115.883 37.8343 115.445 36.751C115.006 35.6677 114.368 34.7048 113.61 33.9425V33.9024ZM102.445 36.0288H107.35C107.988 36.0288 108.546 36.1492 109.064 36.3498C109.583 36.5504 110.021 36.8312 110.38 37.1923C110.739 37.5534 111.018 37.9947 111.218 38.5163C111.417 39.0379 111.537 39.6397 111.537 40.2816V44.0931C111.537 44.7351 111.417 45.3369 111.218 45.8585C111.018 46.3801 110.739 46.8214 110.38 47.1825C110.021 47.5436 109.583 47.8244 109.064 48.025C108.546 48.2256 107.948 48.346 107.31 48.346H102.445C101.807 48.346 101.209 48.2256 100.69 48.025C100.172 47.8244 99.7331 47.5436 99.3743 47.1825C99.0154 46.8214 98.7362 46.3801 98.5368 45.8585C98.3374 45.3369 98.2178 44.7351 98.2178 44.0931V40.2816C98.2178 39.6397 98.3374 39.0379 98.5368 38.5163C98.7362 37.9947 99.0154 37.5534 99.3743 37.1923C99.7331 36.8312 100.172 36.5504 100.69 36.3498C101.209 36.1492 101.807 36.0288 102.445 36.0288Z" fill="#231815"/>
<path id="Vector_10" d="M137.058 34.1832C136.261 33.4208 135.344 32.7789 134.267 32.3376C133.19 31.8962 131.994 31.6555 130.758 31.6555H120.988C120.669 31.6555 120.35 31.7358 120.071 31.816C119.791 31.9364 119.552 32.0969 119.313 32.3376C119.114 32.5382 118.954 32.7789 118.834 33.0999C118.715 33.3807 118.675 33.7017 118.675 34.0227V50.3921C118.675 50.7131 118.715 51.034 118.834 51.3149C118.954 51.5957 119.114 51.8364 119.313 52.037C119.512 52.2377 119.752 52.3981 120.071 52.5185C120.35 52.6389 120.669 52.679 120.988 52.679H130.758C131.994 52.679 133.19 52.4383 134.267 51.9969C135.344 51.5556 136.301 50.9137 137.058 50.1514C137.856 49.3489 138.454 48.4261 138.893 47.3429C139.331 46.2596 139.571 45.056 139.571 43.7721V40.4822C139.571 39.1983 139.331 38.0348 138.893 36.9114C138.454 35.8281 137.816 34.8652 137.058 34.1029V34.1832ZM130.758 48.0651H123.301V36.3096H130.758C131.396 36.3096 131.994 36.4299 132.512 36.6305C133.031 36.8311 133.469 37.112 133.828 37.4731C134.187 37.8342 134.466 38.2755 134.666 38.7971C134.865 39.3187 134.985 39.9205 134.985 40.5624V43.8523C134.985 44.4943 134.865 45.0961 134.666 45.6177C134.466 46.1392 134.187 46.5806 133.828 46.9417C133.469 47.3028 133.031 47.5836 132.512 47.7842C131.994 47.9848 131.396 48.1052 130.758 48.1052V48.0651Z" fill="#231815"/>
<path id="Vector_11" d="M143.439 31.816C143.16 31.9364 142.92 32.0969 142.681 32.3376C142.482 32.5382 142.322 32.819 142.202 33.0999C142.083 33.3807 142.043 33.7017 142.043 34.0227V47.1423C142.043 48.1453 142.242 49.028 142.601 49.7501C142.96 50.4723 143.439 51.034 143.997 51.4753C144.555 51.9167 145.153 52.2376 145.831 52.4383C146.469 52.6389 147.068 52.7191 147.626 52.7191H161.144V48.0651H147.626C147.267 48.0651 147.028 47.9848 146.868 47.8243C146.709 47.6638 146.629 47.4231 146.629 47.1021V36.3096H161.104V31.6555H144.356C144.037 31.6555 143.718 31.7358 143.439 31.816Z" fill="#231815"/>
<path id="Vector_12" d="M159.509 39.8403H151.095V44.4944H159.509V39.8403Z" fill="#231815"/>
<path id="Vector_13" d="M181.083 39.8403H172.669V44.4944H181.083V39.8403Z" fill="#231815"/>
<path id="Vector_14" d="M165.012 31.816C164.733 31.9364 164.494 32.0969 164.255 32.3376C164.055 32.5382 163.896 32.819 163.776 33.0999C163.656 33.3807 163.617 33.7017 163.617 34.0227V52.7191H168.242V36.3096H182.718V31.6555H165.929C165.61 31.6555 165.291 31.7358 165.012 31.816Z" fill="#231815"/>
<path id="Vector_15" d="M202.018 39.8403H193.604V44.4944H202.018V39.8403Z" fill="#231815"/>
<path id="Vector_16" d="M185.948 31.8161C185.669 31.9364 185.429 32.0969 185.23 32.2975C185.031 32.4981 184.871 32.7389 184.752 33.0598C184.632 33.3407 184.592 33.6617 184.592 33.9826V47.1022C184.592 48.1053 184.791 48.9879 185.15 49.7101C185.509 50.4323 185.988 50.994 186.546 51.4353C187.104 51.8766 187.702 52.1976 188.341 52.3982C188.979 52.5988 189.577 52.6791 190.135 52.6791H203.653V48.025H190.135C189.776 48.025 189.537 47.9448 189.377 47.7843C189.218 47.6238 189.138 47.3831 189.138 47.0621V36.2695H203.614V31.6155H186.825C186.506 31.6155 186.187 31.6957 185.908 31.776L185.948 31.8161Z" fill="#231815"/>
<path id="Vector_17" d="M225.107 42.5685C224.788 42.0871 224.39 41.6859 223.991 41.3248C223.592 41.0038 223.114 40.723 222.675 40.4822C222.196 40.2816 221.758 40.081 221.279 40.0008C220.801 39.8804 220.362 39.8403 219.923 39.8403H211.629C211.071 39.8403 210.672 39.6798 210.393 39.399C210.113 39.078 209.954 38.6367 209.954 38.075C209.954 37.5133 210.113 37.0719 210.393 36.751C210.672 36.43 211.071 36.2695 211.629 36.2695H224.429V31.6155H211.629C210.991 31.6155 210.313 31.7358 209.595 31.9364C208.877 32.1772 208.16 32.5383 207.561 33.0598C206.923 33.5814 206.405 34.2635 206.006 35.0659C205.567 35.8683 205.368 36.8713 205.368 38.075C205.368 39.2786 205.567 40.2415 206.006 41.0841C206.405 41.8865 206.963 42.5685 207.561 43.0901C208.199 43.6117 208.877 43.9728 209.595 44.1734C210.313 44.4141 210.991 44.4944 211.629 44.4944H219.923C220.202 44.4944 220.442 44.5345 220.641 44.6147C220.841 44.695 221 44.8153 221.16 44.9758C221.319 45.1363 221.399 45.3369 221.479 45.5375C221.558 45.7782 221.598 46.019 221.598 46.2998C221.598 46.8615 221.439 47.3028 221.16 47.5837C220.88 47.9046 220.442 48.025 219.883 48.025H205.448V52.6791H219.883C220.322 52.6791 220.761 52.6389 221.239 52.5186C221.718 52.3982 222.196 52.2779 222.635 52.0371C223.074 51.8365 223.552 51.5557 223.951 51.2347C224.39 50.8736 224.788 50.4724 225.107 49.9909C225.426 49.5095 225.706 48.9478 225.905 48.346C226.104 47.704 226.184 47.022 226.184 46.2597C226.184 45.4974 226.104 44.8153 225.905 44.1734C225.706 43.5716 225.466 43.0099 225.107 42.5284V42.5685Z" fill="#231815"/>
<path id="Vector_18" d="M226.423 31.6555V36.3096H234.399V52.7191H239.025V36.3096H247V31.6555H226.423Z" fill="#231815"/>
</g>
<g id="Group_2">
<path id="Vector_19" d="M61.2914 20.8229H36.8067V51.997H28.1932V16.4898C28.1932 15.888 28.3129 15.3263 28.5123 14.8047C28.7116 14.2832 29.0307 13.8017 29.4294 13.4005C29.8282 12.9993 30.2669 12.6783 30.8251 12.4777C31.3834 12.2771 31.9417 12.1567 32.5399 12.1567H61.2914V20.8229Z" fill="black"/>
<path id="Vector_20" d="M8.77301 8.82666H0V38.3558H8.77301V8.82666Z" fill="black"/>
<path id="Vector_21" d="M28.2331 0H8.69324V8.82665H28.2331V0Z" fill="black"/>
<path id="Vector_22" d="M54.0337 27.6436H44.2638V36.4702H54.0337V27.6436Z" fill="black"/>
</g>
</g>
<defs>
<clipPath id="clip0_827_2321">
<rect width="247" height="53" fill="white"/>
</clipPath>
</defs>
</svg>
