<?xml version="1.0" encoding="utf-8"?>
<!-- Generator: Adobe Illustrator 24.0.1, SVG Export Plug-In . SVG Version: 6.00 Build 0)  -->
<svg version="1.1" id="圖層_1" xmlns="http://www.w3.org/2000/svg" xmlns:xlink="http://www.w3.org/1999/xlink" x="0px" y="0px"
	 viewBox="0 0 188.9 51.3" style="enable-background:new 0 0 188.9 51.3;" xml:space="preserve">
<style type="text/css">
	.st0{fill:#959595;}
	.st1{fill:#2EB6C7;}
</style>
<g>
	<g>
		<path class="st0" d="M24.3,50.7c-0.2,0-0.4,0-0.6-0.1c-8-1.5-15.4-5.7-20.8-11.8c-1.3-1.4-1.1-3.6,0.3-4.9
			c1.4-1.3,3.6-1.1,4.9,0.3c4.4,5,10.4,8.4,16.9,9.6c1.9,0.4,3.1,2.2,2.8,4C27.3,49.6,25.9,50.7,24.3,50.7z"/>
	</g>
	<g>
		<path class="st0" d="M24.3,36.5c-1.9,0-3.5-1.5-3.5-3.5V4c0-1.9,1.5-3.5,3.5-3.5c1.9,0,3.5,1.5,3.5,3.5v29
			C27.7,34.9,26.2,36.5,24.3,36.5z"/>
	</g>
	<g>
		<path class="st1" d="M42.7,50.7c-1.3,0-2.6-0.4-3.7-1.2c-1.6-1.2-2.6-3.1-2.6-5.1l0-40.4c0-1.9,1.5-3.5,3.5-3.5
			c1.9,0,3.5,1.5,3.5,3.5l0,39.6c4.9-1.7,9.3-4.6,12.8-8.5c1.3-1.4,3.5-1.6,4.9-0.3c1.4,1.3,1.6,3.5,0.3,4.9
			c-4.5,5.1-10.3,8.8-16.8,10.8C43.9,50.6,43.3,50.7,42.7,50.7z"/>
	</g>
	<g>
		<path class="st0" d="M11,19.7c0,2.5-2,4.5-4.5,4.5c-2.5,0-4.5-2-4.5-4.5c0-2.5,2-4.5,4.5-4.5C9,15.2,11,17.2,11,19.7z"/>
	</g>
	<g>
		<path class="st1" d="M62.2,20.1c0,2.5-2,4.5-4.5,4.5c-2.5,0-4.5-2-4.5-4.5c0-2.5,2-4.5,4.5-4.5C60.2,15.6,62.2,17.7,62.2,20.1z"/>
	</g>
	<g>
		<path class="st1" d="M88.7,8.2v2.7h-4.2v11.2h-3.1V10.9h-4.2V8.2H88.7z"/>
	</g>
	<g>
		<path class="st1" d="M97.5,22.1l-1-3h-5.4l-1,3h-3.2l5.5-13.9h3l5.5,13.9H97.5z M93.8,11.4l-2,5.2h4L93.8,11.4z"/>
	</g>
	<g>
		<path class="st1" d="M101.9,8.2h3.1v13.9h-3.1V8.2z"/>
	</g>
	<g>
		<path class="st1" d="M112,8.1c2.1,0,3.7,0.4,4.8,1.1c1.1,0.7,1.7,1.9,1.7,3.6c0,1.7-0.6,2.9-1.7,3.6c-1.1,0.7-2.7,1.1-4.8,1.1h-1
			v4.6h-3.1V8.4c0.7-0.1,1.4-0.2,2.2-0.3C110.7,8.1,111.4,8.1,112,8.1z M112.2,10.7c-0.2,0-0.5,0-0.7,0c-0.2,0-0.4,0-0.6,0v4h1
			c1.1,0,1.9-0.1,2.4-0.4c0.5-0.3,0.8-0.8,0.8-1.6c0-0.4-0.1-0.7-0.2-1c-0.1-0.3-0.3-0.5-0.6-0.6c-0.3-0.2-0.6-0.3-1-0.3
			C113,10.8,112.6,10.7,112.2,10.7z"/>
	</g>
	<g>
		<path class="st1" d="M119.9,22.1V8.2h9.4v2.6H123v2.7h5.5v2.6H123v3.3h6.7v2.6H119.9z"/>
	</g>
	<g>
		<path class="st1" d="M132,8.2h3.1v13.9H132V8.2z"/>
	</g>
	<g>
		<path class="st0" d="M146.9,8.1c1.9,0,3.4,0.4,4.5,1.1c1,0.7,1.6,1.8,1.6,3.3c0,0.8-0.1,1.5-0.4,2.1c-0.3,0.6-0.7,1-1.2,1.4
			c-0.5,0.4-1.2,0.6-2,0.8c-0.8,0.2-1.6,0.2-2.6,0.2h-1.5v5.1h-1.9V8.4c0.5-0.1,1.2-0.2,1.8-0.3C145.8,8.1,146.4,8.1,146.9,8.1z
			 M147.1,9.8c-0.8,0-1.5,0-1.9,0.1v5.4h1.5c0.7,0,1.3,0,1.8-0.1c0.5-0.1,1-0.2,1.4-0.4c0.4-0.2,0.7-0.5,0.9-0.9
			c0.2-0.4,0.3-0.8,0.3-1.4c0-0.5-0.1-1-0.3-1.3c-0.2-0.3-0.5-0.6-0.8-0.8c-0.4-0.2-0.8-0.4-1.2-0.4C148.1,9.8,147.6,9.8,147.1,9.8z
			"/>
	</g>
	<g>
		<path class="st0" d="M163.7,22.1c0,0-0.4-1.2-0.6-1.8c-0.2-0.6-0.6-1.8-0.6-1.8h-6.3l-1.3,3.5h-2l5.6-13.9h1.8l5.6,13.9H163.7z
			 M161.9,16.9l-2.6-6.5l-2.6,6.5H161.9z"/>
	</g>
	<g>
		<path class="st0" d="M171.2,20.7c2,0,3-0.7,3-2.1c0-0.4-0.1-0.8-0.3-1.1c-0.2-0.3-0.4-0.6-0.7-0.8c-0.3-0.2-0.7-0.4-1.1-0.6
			c-0.4-0.2-0.8-0.3-1.3-0.5c-0.5-0.2-1-0.4-1.4-0.6c-0.5-0.2-0.8-0.5-1.2-0.8c-0.3-0.3-0.6-0.7-0.8-1.1c-0.2-0.4-0.3-0.9-0.3-1.5
			c0-1.2,0.4-2.2,1.2-2.8c0.8-0.7,2-1,3.4-1c0.8,0,1.6,0.1,2.3,0.3c0.7,0.2,1.2,0.4,1.5,0.6l-0.6,1.6c-0.3-0.2-0.7-0.3-1.3-0.5
			c-0.6-0.2-1.2-0.3-1.9-0.3c-0.4,0-0.7,0-1,0.1c-0.3,0.1-0.6,0.2-0.8,0.4c-0.2,0.2-0.4,0.4-0.6,0.6c-0.1,0.2-0.2,0.5-0.2,0.9
			c0,0.4,0.1,0.7,0.2,0.9c0.1,0.3,0.4,0.5,0.6,0.7c0.3,0.2,0.6,0.4,0.9,0.5c0.4,0.2,0.7,0.3,1.2,0.5c0.6,0.2,1.2,0.5,1.7,0.7
			c0.5,0.2,0.9,0.5,1.3,0.9c0.4,0.3,0.7,0.7,0.9,1.2c0.2,0.5,0.3,1,0.3,1.7c0,1.2-0.4,2.1-1.3,2.8c-0.9,0.7-2.1,1-3.8,1
			c-0.5,0-1.1,0-1.5-0.1c-0.5-0.1-0.9-0.2-1.2-0.3c-0.4-0.1-0.7-0.2-0.9-0.3c-0.3-0.1-0.5-0.2-0.6-0.3l0.6-1.6
			c0.3,0.2,0.8,0.4,1.4,0.6C169.5,20.6,170.3,20.7,171.2,20.7z"/>
	</g>
	<g>
		<path class="st0" d="M181.9,20.7c2,0,3-0.7,3-2.1c0-0.4-0.1-0.8-0.3-1.1c-0.2-0.3-0.4-0.6-0.7-0.8c-0.3-0.2-0.7-0.4-1.1-0.6
			c-0.4-0.2-0.8-0.3-1.3-0.5c-0.5-0.2-1-0.4-1.4-0.6c-0.5-0.2-0.8-0.5-1.2-0.8c-0.3-0.3-0.6-0.7-0.8-1.1c-0.2-0.4-0.3-0.9-0.3-1.5
			c0-1.2,0.4-2.2,1.2-2.8c0.8-0.7,2-1,3.4-1c0.8,0,1.6,0.1,2.3,0.3c0.7,0.2,1.2,0.4,1.5,0.6l-0.6,1.6c-0.3-0.2-0.7-0.3-1.3-0.5
			c-0.6-0.2-1.2-0.3-1.9-0.3c-0.4,0-0.7,0-1,0.1c-0.3,0.1-0.6,0.2-0.8,0.4c-0.2,0.2-0.4,0.4-0.6,0.6c-0.1,0.2-0.2,0.5-0.2,0.9
			c0,0.4,0.1,0.7,0.2,0.9c0.1,0.3,0.4,0.5,0.6,0.7c0.3,0.2,0.6,0.4,0.9,0.5c0.4,0.2,0.7,0.3,1.2,0.5c0.6,0.2,1.2,0.5,1.7,0.7
			c0.5,0.2,0.9,0.5,1.3,0.9c0.4,0.3,0.7,0.7,0.9,1.2c0.2,0.5,0.3,1,0.3,1.7c0,1.2-0.4,2.1-1.3,2.8c-0.9,0.7-2.1,1-3.8,1
			c-0.5,0-1.1,0-1.5-0.1c-0.5-0.1-0.9-0.2-1.2-0.3c-0.4-0.1-0.7-0.2-0.9-0.3c-0.3-0.1-0.5-0.2-0.6-0.3l0.6-1.6
			c0.3,0.2,0.8,0.4,1.4,0.6C180.2,20.6,181,20.7,181.9,20.7z"/>
	</g>
	<g>
		<path class="st0" d="M79.3,36.6l0,6.5h11.4c0.3,0,0.5-0.2,0.5-0.5l0-6.1L79.3,36.6z M81.3,41.2l0-2.7l8-0.1l0,2.4
			c0,0.2-0.1,0.3-0.3,0.3L81.3,41.2z"/>
	</g>
	<g>
		<path class="st0" d="M103.2,33.2h-4.1v1.9h4.1v6c0,0,0,0,0,0.1h-4.7v1.9h6.2c0.3,0,0.5-0.2,0.5-0.6V29.1h-2V33.2z"/>
		<path class="st0" d="M108.8,41.1C108.8,41.1,108.8,41.1,108.8,41.1v-6h4.1v-1.9h-4.1v-4.1h-2v13.4c0,0.3,0.3,0.6,0.6,0.6l6.1,0v-2
			L108.8,41.1z"/>
	</g>
	<g>
		<path class="st0" d="M124.3,29.9c-1.1-0.8-2.1-1.3-3-1.7l-0.9,1.8c0.8,0.3,1.8,0.9,2.9,1.6L124.3,29.9z"/>
		<path class="st0" d="M135.1,41.6c0,0-5.7,0.2-8,0.1c-0.7,0-1.3-0.2-1.9-0.5c-0.2-0.1-0.3-0.2-0.4-0.3l-0.1-0.1l0,0c0,0,0,0,0,0
			c-0.3-0.4-0.5-0.9-0.5-1.5l0-5.5c0-0.3-0.2-0.4-0.5-0.4l-3.1,0l0,1.9h1.5c0.2,0,0.2,0.1,0.2,0.2l0,4.1c0,0.6-0.2,1.1-0.5,1.5
			c-0.3,0.4-0.7,0.6-1.6,1l0.6,1.4c0.5-0.1,1-0.4,1.6-0.7c0.5-0.4,0.9-0.7,1.1-1c0.7,1,1.9,1.5,3.7,1.6h8L135.1,41.6z"/>
		<path class="st0" d="M132,30.3c-0.2,0.3-0.4,0.7-0.5,1c0,0-0.1,0.1-0.1,0.1c0,0,0,0.1-0.1,0.1h-6v9.2l1.9,0l0-2h2.1l0,2l1.9,0l0-2
			h2v2h0.4c0.4,0,0.8-0.2,1.1-0.5c0.3-0.3,0.5-0.6,0.5-1.1l0,0c0,0,0,0,0,0v-7.7h-0.1h-1.5c0.2-0.4,0.5-0.8,0.8-1.2l0-1.7h-9l0,1.7
			H132z M127.1,33.3h2.1l0,1.2h-2.1L127.1,33.3z M127.2,37.2l0-1.2h2.1l0,1.2H127.2z M131.1,33.3h2v1.2h-2L131.1,33.3z M131.2,37.2
			l0-1.2h2v1.2H131.2z"/>
	</g>
	<g>
		<polygon class="st0" points="89.7,30.5 87.5,30.5 89.2,33.2 89.2,33.2 81.4,33.2 83.9,29.1 81.7,29.1 79.1,33.2 79.1,35.2 
			91.4,35.2 91.4,35.2 91.4,35.2 91.4,33.2 		"/>
	</g>
</g>
</svg>
